# xmcd
#
# Track frame offsets:
#	150
#	16217
#	36427
#	52892
#	70287
#	84450
#	107750
#	127002
#	150462
#	172425
#	191722
#	210642
#	226662
#	253122
#	273625
#	293240
#	320362
#
# Disc length: 4456
#
# Revision: 2
# Processed by: cddbd v1.5.1PL0 Copyright (c) Steve Scherf et al.
# Submitted via: CDex 1.40Beta9
# Normalized: r0:TSWAP
#
DISCID=f8116611
DTITLE=Various Artist - Blues and Blues
DYEAR=1900
DGENRE=Blues
TTITLE0=Oscar Benton '94 - I'd rather go blind
TTITLE1=Madonna - Secret (remix)
TTITLE2=Michelle Gayle and N. M. Walden - Sweetness
TTITLE3=Marky Mark and Prince Ital Joe - Life in the streets
TTITLE4=sung by Faith No More - I'm Easy Music by Lionel Richie
TTITLE5=Sinead O'Connor - Fire on Babylon
TTITLE6=The Cranberries - Zombie
TTITLE7=Joe Cocker - Let the healing begin
TTITLE8=D-Emotion Project (feat. S. Sabotinova) - Pritouritze Planinata
TTITLE9=Naomi Campbell - Love and Tears
TTITLE10=Robin Beck and Dan Lucas - If you need me tonight
TTITLE11=Take That - Love ai'nt here any more
TTITLE12=Bon Jovi - Always
TTITLE13=Roger Taylor and Yoshika - Foriegn Sand
TTITLE14=Luther Vandross and Mariah Carey - Endless Love (remix)
TTITLE15=Barry White - Practice what you preach
TTITLE16=Synclair and Wilde - Africa
EXTD=ID3G: 0
EXTT0=
EXTT1=
EXTT2=
EXTT3=
EXTT4=
EXTT5=
EXTT6=
EXTT7=
EXTT8=
EXTT9=
EXTT10=
EXTT11=
EXTT12=
EXTT13=
EXTT14=
EXTT15=
EXTT16=
PLAYORDER=
